<mxfile host="app.diagrams.net" modified="2023-10-12T12:57:22.843Z" agent="Mozilla/5.0 (Linux; Android 10; K) AppleWebKit/537.36 (KHTML, like Gecko) Chrome/117.0.0.0 Mobile Safari/537.36" version="22.0.4" etag="4pnbuuJxXH4MWhozog1M" type="github">
  <diagram name="Halaman-1" id="pzwbghL__7_SADQtuXC3">
    <mxGraphModel>
      <root>
        <mxCell id="0" />
        <mxCell id="1" parent="0" />
      </root>
    </mxGraphModel>
  </diagram>
</mxfile>
